<svg xmlns="http://www.w3.org/2000/svg" width="13.806" height="17.611" viewBox="0 0 13.806 17.611">
  <g id="user-4" transform="translate(0 -0.211)">
    <g id="Group_192" data-name="Group 192" transform="translate(0.454 0.635)">
      <path id="Path_360" data-name="Path 360" d="M76.415,15.115a4.06,4.06,0,0,1,4.06-4.06c.132,0,.259.009.386.017a4.061,4.061,0,1,0-2.893,7.238A4.061,4.061,0,0,1,76.415,15.115Zm0,0" transform="translate(-71.596 -10.206)" fill="#d4e1f4"/>
      <path id="Path_361" data-name="Path 361" d="M19.574,246.261a6.843,6.843,0,0,1,1.425.148,6.693,6.693,0,0,0-3.547-1,6.8,6.8,0,0,0-6.754,7.051l2.164,0A6.752,6.752,0,0,1,19.574,246.261Zm0,0" transform="translate(-10.699 -235.434)" fill="#d4e1f4"/>
    </g>
    <path id="Path_363" data-name="Path 363" d="M68.785,9.18A4.484,4.484,0,1,0,64.3,4.7,4.484,4.484,0,0,0,68.785,9.18Zm0-8.12A3.636,3.636,0,1,1,65.149,4.7,3.636,3.636,0,0,1,68.785,1.059Zm0,0" transform="translate(-61.573 0)" fill="#b0b3d0"/>
    <path id="Path_364" data-name="Path 364" d="M13.064,242.121.861,242.1a6.365,6.365,0,0,1,12.133-2.236.425.425,0,1,0,.772-.356A7.213,7.213,0,0,0,0,242.525a.425.425,0,0,0,.424.424l12.64-.01c.062.009.49.008.495-.373S13.064,242.121,13.064,242.121Z" transform="translate(0 -225.127)" fill="#b0b3d0"/>
  </g>
</svg>
