<svg id="pill" xmlns="http://www.w3.org/2000/svg" xmlns:xlink="http://www.w3.org/1999/xlink" width="34.682" height="34.682" viewBox="0 0 34.682 34.682">
  <defs>
    <linearGradient id="linear-gradient" x1="0.5" x2="0.5" y2="1" gradientUnits="objectBoundingBox">
      <stop offset="0" stop-color="#626cfe"/>
      <stop offset="1" stop-color="#9940f1"/>
    </linearGradient>
  </defs>
  <path id="Path_1208" data-name="Path 1208" d="M168.991,18.92a9.982,9.982,0,0,0-14.1,0l-6.267,6.267,14.1,14.1,6.267-6.267A9.982,9.982,0,0,0,168.991,18.92Z" transform="translate(-138.333 -14.896)" fill="url(#linear-gradient)"/>
  <path id="Path_1209" data-name="Path 1209" d="M31.441,3.24a11.089,11.089,0,0,0-15.667,0L3.24,15.774a11.089,11.089,0,0,0,0,15.667h0a11.089,11.089,0,0,0,15.667,0L31.441,18.907a11.089,11.089,0,0,0,0-15.667Zm-1.566,14.1L17.341,29.875a8.874,8.874,0,0,1-12.534,0l-.783.783.783-.783a8.874,8.874,0,0,1,0-12.534L17.341,4.807A8.863,8.863,0,0,1,29.875,17.341Z" transform="translate(0 0)" fill="#4d4d4d"/>
  <path id="Path_1210" data-name="Path 1210" d="M67.495,276.538a4.438,4.438,0,0,1,0-6.267,1.108,1.108,0,0,0-1.566-1.566,6.654,6.654,0,0,0,0,9.4,1.108,1.108,0,0,0,1.568-1.566Z" transform="translate(-59.554 -249.798)" fill="url(#linear-gradient)"/>
</svg>
