<svg xmlns="http://www.w3.org/2000/svg" width="17.29" height="17.611" viewBox="0 0 17.29 17.611">
  <g id="tick" transform="translate(-0.402)">
    <path id="Path_357" data-name="Path 357" d="M12.048,19.5a8.231,8.231,0,0,1,12.3-7.155,8.231,8.231,0,1,0-9.789,13.074A8.191,8.191,0,0,1,12.048,19.5Zm0,0" transform="translate(-9.587 -9.62)" fill="#d4e1f4"/>
    <path id="Path_359" data-name="Path 359" d="M9.047,0a8.645,8.645,0,1,0,2.894,16.787l4.672.819a.423.423,0,0,0,.07,0,.413.413,0,0,0,.379-.572L15.79,14.046A8.638,8.638,0,0,0,9.047,0Zm7.286,11.493A7.791,7.791,0,0,1,15,13.708a.407.407,0,0,0-.066.428l1.074,2.528-4.034-.7a.391.391,0,0,0-.07,0,.427.427,0,0,0-.144.025,7.819,7.819,0,1,1,5.109-7.331A7.7,7.7,0,0,1,16.333,11.493Zm0,0" fill="#b0b3d0"/>
  </g>
</svg>
