<svg xmlns="http://www.w3.org/2000/svg" width="18.069" height="17.919" viewBox="0 0 18.069 17.919">
  <path id="Path_367" data-name="Path 367" d="M15.986.3H2.084A2.084,2.084,0,0,0,0,2.384V12.561a2.085,2.085,0,0,0,2.084,2.084H8.618v2.742H5.592a.417.417,0,0,0,0,.833h7.084a.417.417,0,0,0,0-.833H9.451V14.645h6.534a2.085,2.085,0,0,0,2.084-2.084V2.384A2.084,2.084,0,0,0,15.986.3Zm1.25,12.26a1.254,1.254,0,0,1-1.25,1.25H2.084a1.254,1.254,0,0,1-1.25-1.25V2.384a1.254,1.254,0,0,1,1.25-1.25H15.99a1.254,1.254,0,0,1,1.25,1.25V12.561Zm0,0" transform="translate(0 -0.301)" fill="#3a58fc"/>
</svg>
