<svg xmlns="http://www.w3.org/2000/svg" width="6.386" height="11" viewBox="0 0 6.386 11">
  <g id="doctor" transform="translate(-107.386)">
    <path id="Path_187" data-name="Path 187" d="M134.406,96.47a2.673,2.673,0,0,1-2.67-2.67V92.578a.319.319,0,1,1,.639,0V93.8a2.031,2.031,0,0,0,4.062,0,.319.319,0,1,1,.639,0A2.673,2.673,0,0,1,134.406,96.47Z" transform="translate(-23.827 -90.277)" fill="#6e78f7"/>
    <path id="Path_188" data-name="Path 188" d="M151.3,16.845h-4.7v-1.33c0-.869,4.7-.869,4.7,0C151.3,15.926,151.3,16.845,151.3,16.845Z" transform="translate(-38.37 -14.543)" fill="#cee8fa"/>
    <path id="Path_189" data-name="Path 189" d="M136.757,2.621h-4.7a.319.319,0,0,1-.319-.319V.971c0-.877,1.867-.971,2.67-.971s2.67.095,2.67.971V2.3A.319.319,0,0,1,136.757,2.621Zm-4.382-.639h4.062V1a5.959,5.959,0,0,0-4.062,0v.987Z" transform="translate(-23.828 0)" fill="#6e78f7"/>
    <path id="Path_190" data-name="Path 190" d="M126.494,326.235h-2.746l-.859.27-.642,1.231v2.171h5.747v-2.171A1.5,1.5,0,0,0,126.494,326.235Zm.383,2.4h-1.554v-1.08h1.554v1.08Z" transform="translate(-14.542 -319.226)" fill="#cee8fa"/>
    <path id="Path_191" data-name="Path 191" d="M113.452,315.684h-5.747a.319.319,0,0,1-.319-.319v-2.171a1.822,1.822,0,0,1,1.82-1.82h2.746a1.822,1.822,0,0,1,1.82,1.82v2.171A.319.319,0,0,1,113.452,315.684Zm-5.428-.639h5.109v-1.852a1.183,1.183,0,0,0-1.181-1.181h-2.746a1.183,1.183,0,0,0-1.181,1.181v1.852Zm4.31-.633h-1.554a.319.319,0,0,1-.319-.319v-1.08a.319.319,0,0,1,.319-.319h1.554a.319.319,0,0,1,.319.319v1.08A.319.319,0,0,1,112.335,314.413Zm-1.235-.639h.915v-.442H111.1Z" transform="translate(0 -304.684)" fill="#6e78f7"/>
  </g>
</svg>
