<svg xmlns="http://www.w3.org/2000/svg" width="22.646" height="26.485" viewBox="0 0 22.646 26.485">
  <path id="Path_373" data-name="Path 373" d="M255.967,225.4H235.585a1.135,1.135,0,0,0-1.132,1.132v7.27a1.143,1.143,0,0,0,.4.86l7.564,6.488v9.6a1.132,1.132,0,0,0,.533.962,1.119,1.119,0,0,0,.6.17,1.029,1.029,0,0,0,.51-.125l4.462-2.231a1.132,1.132,0,0,0,.623-1.008v-7.371l7.564-6.488a1.146,1.146,0,0,0,.4-.86v-7.27a1.13,1.13,0,0,0-1.132-1.132Zm-1.132,7.881-7.564,6.488a1.143,1.143,0,0,0-.4.86v7.19l-2.2,1.1v-8.289a1.143,1.143,0,0,0-.4-.86l-7.563-6.488v-5.616h18.117Zm0,0" transform="translate(-234.453 -225.398)" fill="#6e78f7"/>
</svg>
